<svg xmlns="http://www.w3.org/2000/svg" viewBox="0 0 564.33 125.59"><defs><style>.cls-1{fill:#282c33;}.cls-2{fill:#90a4ad;}</style></defs><title>Asset 1</title><g id="Layer_2" data-name="Layer 2"><g id="Ebene_1" data-name="Ebene 1"><path class="cls-1" d="M127.45,98.77V98.6c0-9.53,7.24-14.47,18-14.47a35.22,35.22,0,0,1,11.07,1.79v-.77c0-4.77-3-7.49-9.19-7.49a32.53,32.53,0,0,0-12.68,2.55L131.38,68.8A46.23,46.23,0,0,1,150,65.22c8.26,0,13.88,2,17.54,5.62,3.49,3.41,4.94,8.17,4.94,14.64V112h-16v-4.77A17.37,17.37,0,0,1,143,113C134.18,113,127.45,108,127.45,98.77Zm29.29-3.49V93.15a17,17,0,0,0-6.3-1.19c-4.68,0-7.41,2.3-7.41,5.7v.17c0,3.15,2.38,5,5.7,5C153.42,102.86,156.74,99.88,156.74,95.28Z"/><path class="cls-1" d="M180.74,65.91h16.17V72c3.15-3.83,7.07-7.15,14-7.15,11,0,20.43,9.11,20.43,23.84v.17c0,15-9.45,24.09-20.35,24.09a17.3,17.3,0,0,1-14-6.64v19.24H180.73V65.91ZM215.39,89v-.17c0-6-4.17-10.39-9.45-10.39s-9.36,4.34-9.36,10.39V89c0,6.13,4.17,10.47,9.36,10.47S215.39,95.2,215.39,89Z"/><path class="cls-1" d="M238.29,65.91h16.17V72c3.15-3.83,7.07-7.15,14-7.15,11,0,20.43,9.11,20.43,23.84v.17c0,15-9.45,24.09-20.35,24.09a17.3,17.3,0,0,1-14.05-6.64v19.24H238.28V65.91ZM272.94,89v-.17c0-6-4.17-10.39-9.45-10.39s-9.36,4.34-9.36,10.39V89c0,6.13,4.17,10.47,9.36,10.47S272.94,95.2,272.94,89Z"/><path class="cls-1" d="M295.84,65.91H312v9.28c2.64-6.3,6.9-10.39,14.56-10v17h-1.36c-8.43,0-13.2,4.85-13.2,15.49V112H295.84Z"/><path class="cls-1" d="M329.55,89.15V89c0-13.11,10.73-24.09,25.54-24.09s25.37,10.81,25.37,23.92V89c0,13.11-10.73,24.09-25.54,24.09S329.55,102.26,329.55,89.15Zm35.16,0V89c0-5.62-4.09-10.39-9.79-10.39-5.87,0-9.62,4.68-9.62,10.21V89c0,5.62,4.09,10.39,9.79,10.39C361,99.37,364.71,94.69,364.71,89.15Z"/><path class="cls-1" d="M381.22,65.91h17l8.85,26.9L416,65.91h16.77l-18.39,46.4H399.6Z"/><path class="cls-1" d="M433.24,89.15V89c0-13.45,9.62-24.09,23.24-24.09,15.92,0,23.24,11.66,23.24,25.2,0,1,0,2.21-.08,3.32H448.82c1.28,5,4.94,7.58,10,7.58,3.83,0,6.89-1.45,10.21-4.68l8.94,7.41c-4.43,5.62-10.81,9.36-20,9.36C443.45,113.07,433.24,103.45,433.24,89.15Zm31.32-4c-.6-5.11-3.58-8.34-8-8.34-4.26,0-7.15,3.32-8,8.34Z"/><path class="cls-2" d="M487.89,52.38h16.6V112h-16.6Z"/><path class="cls-2" d="M529.94,66.85H512.06V52.38h52.27V66.85H546.45V112H529.94Z"/><path class="cls-2" d="M0,0V112.75H113V0ZM47.91,97.72,4.49,54.3,16.85,41.94,33.26,58.69l44.3-44.3,13.18,14L47,72.11,60.27,85.37ZM64.47,82l-9.86-9.86L94.14,32.58,104,42.44Z"/></g></g></svg>